# xmcd
#
# Track frame offsets: 
#        150
#        13375
#        32192
#        43149
#        59129
#        76311
#        90337
#        105355
#        118869
#        131829
#        145649
#        157735
#        173380
#        188091
#        201709
#        212776
#        226697
#        244057
#        258097
#
# Disc length: 3641 seconds
#
# Revision: 1
# Processed by: cddbd v1.5.2PL0 Copyright (c) Steve Scherf et al.
# Submitted via: ExactAudioCopy v0.99pb5
#
DISCID=010e3713
DTITLE=Tom Astor - Take It Easy - Die Collection [CD 2 von 4)
DYEAR=2009
DGENRE=Country
TTITLE0=Hungrige Herzen
TTITLE1=Ich bin kein Dichter, kein Poet
TTITLE2=Manchmal will sie einfach nur Frau sein
TTITLE3=Ja, ich bin einfach so wie Du unterwegs
TTITLE4=Worauf willst du noch warten
TTITLE5=Ehrlichkeit
TTITLE6=und ich bin dein Freund
TTITLE7=Wer hat ein Herz, das niemals bricht
TTITLE8=Nutz die Zeit
TTITLE9=Ich bin verrückt nach dir
TTITLE10=Radwechsel
TTITLE11=Bist du die Frau
TTITLE12=Renovier' deine Seele
TTITLE13=Nimm dir Zeit
TTITLE14=Ist lang her
TTITLE15=Zusammen gewonnen, zusammen verlorn'
TTITLE16=Frau'n
TTITLE17=Mit dem Truck durch Texas fahr'n
TTITLE18=Ich bin wieder frei
EXTD=
EXTT0=
EXTT1=
EXTT2=
EXTT3=
EXTT4=
EXTT5=
EXTT6=
EXTT7=
EXTT8=
EXTT9=
EXTT10=
EXTT11=
EXTT12=
EXTT13=
EXTT14=
EXTT15=
EXTT16=
EXTT17=
EXTT18=
PLAYORDER=
